<svg xmlns="http://www.w3.org/2000/svg" width="720" height="240" viewBox="0 0 720 240">
  <defs>
    <linearGradient id="buttonFill" x1="0" y1="0" x2="0" y2="1">
      <stop offset="0" stop-color="#27313a"/>
      <stop offset="0.52" stop-color="#182026"/>
      <stop offset="1" stop-color="#10161a"/>
    </linearGradient>
    <linearGradient id="buttonGlow" x1="0" y1="0" x2="1" y2="0">
      <stop offset="0" stop-color="#d6a84f" stop-opacity="0.18"/>
      <stop offset="0.5" stop-color="#65a889" stop-opacity="0.26"/>
      <stop offset="1" stop-color="#d6a84f" stop-opacity="0.18"/>
    </linearGradient>
    <linearGradient id="edgeLight" x1="0" y1="0" x2="1" y2="0">
      <stop offset="0" stop-color="#6f5830"/>
      <stop offset="0.5" stop-color="#b99046"/>
      <stop offset="1" stop-color="#6f5830"/>
    </linearGradient>
    <filter id="dropShadow" x="-20%" y="-40%" width="140%" height="190%">
      <feDropShadow dx="0" dy="16" stdDeviation="14" flood-color="#020304" flood-opacity="0.58"/>
      <feDropShadow dx="0" dy="0" stdDeviation="7" flood-color="#65a889" flood-opacity="0.18"/>
    </filter>
    <filter id="textShadow" x="-20%" y="-60%" width="140%" height="220%">
      <feDropShadow dx="0" dy="2" stdDeviation="2" flood-color="#000000" flood-opacity="0.75"/>
    </filter>
  </defs>

  <rect width="720" height="240" fill="#0b0f12"/>
  <g opacity="0.16">
    <path d="M0 172 L720 68" stroke="#8a6a32" stroke-width="1"/>
    <path d="M0 200 L720 96" stroke="#315844" stroke-width="1"/>
    <path d="M0 228 L720 124" stroke="#8a6a32" stroke-width="1"/>
  </g>

  <g filter="url(#dropShadow)">
    <path d="M164 78 L188 54 H532 L556 78 V154 L532 178 H188 L164 154 Z" fill="#080b0d"/>
    <path d="M172 80 L192 60 H528 L548 80 V152 L528 172 H192 L172 152 Z" fill="url(#buttonFill)" stroke="#050708" stroke-width="4"/>
    <path d="M184 88 L200 72 H520 L536 88 V144 L520 160 H200 L184 144 Z" fill="url(#buttonGlow)" opacity="0.88"/>
    <path d="M188 76 H532" stroke="url(#edgeLight)" stroke-width="3" stroke-linecap="round"/>
    <path d="M188 156 H532" stroke="#4b3620" stroke-width="2" stroke-linecap="round" opacity="0.8"/>
    <path d="M200 72 H520" stroke="#e0c078" stroke-width="1" opacity="0.42"/>
    <path d="M200 160 H520" stroke="#65a889" stroke-width="1" opacity="0.28"/>

    <g opacity="0.96">
      <rect x="210" y="92" width="5" height="48" fill="#d6a84f"/>
      <rect x="224" y="92" width="5" height="48" fill="#3f715b"/>
      <rect x="491" y="92" width="5" height="48" fill="#3f715b"/>
      <rect x="505" y="92" width="5" height="48" fill="#d6a84f"/>
    </g>

    <g fill="none" stroke="#d6a84f" stroke-width="2" opacity="0.72">
      <path d="M190 82 h22"/>
      <path d="M530 82 h-22"/>
      <path d="M190 150 h22"/>
      <path d="M530 150 h-22"/>
    </g>

    <text x="360" y="114" text-anchor="middle" font-family="Segoe UI, Arial, sans-serif" font-size="15" font-weight="700" letter-spacing="0" fill="#7fae96" filter="url(#textShadow)">LOADOUT</text>
    <text x="360" y="143" text-anchor="middle" font-family="Segoe UI, Arial, sans-serif" font-size="28" font-weight="800" letter-spacing="0" fill="#f2e3bd" filter="url(#textShadow)">EQUIP MOD</text>
  </g>

  <text x="360" y="214" text-anchor="middle" font-family="Segoe UI, Arial, sans-serif" font-size="14" fill="#8f9aa0">code-native preview: layered rectangles, bevels, states-ready colors, no bitmap texture</text>
</svg>
