<svg xmlns="http://www.w3.org/2000/svg" width="360" height="76" viewBox="0 0 360 76">
  <defs>
    <linearGradient id="fill" x1="0" y1="0" x2="0" y2="1">
      <stop offset="0" stop-color="#211b32"/>
      <stop offset="1" stop-color="#10111a"/>
    </linearGradient>
    <linearGradient id="edge" x1="0" y1="0" x2="1" y2="0">
      <stop offset="0" stop-color="#644d9b"/>
      <stop offset="0.5" stop-color="#b28cff"/>
      <stop offset="1" stop-color="#b68138"/>
    </linearGradient>
    <filter id="glow" x="-15%" y="-35%" width="130%" height="170%">
      <feDropShadow dx="0" dy="0" stdDeviation="5" flood-color="#8f6ed0" flood-opacity="0.55"/>
      <feDropShadow dx="0" dy="0" stdDeviation="3" flood-color="#c49a4a" flood-opacity="0.22"/>
    </filter>
  </defs>
  <rect width="360" height="76" fill="none"/>
  <path d="M12 10 L26 2 H334 L348 10 V66 L334 74 H26 L12 66 Z" fill="#0d0714" opacity="0.95" filter="url(#glow)"/>
  <path d="M16 11 L29 5 H331 L344 11 V65 L331 71 H29 L16 65 Z" fill="url(#fill)" stroke="url(#edge)" stroke-width="2.5"/>
  <path d="M34 14 H326" stroke="#d0a857" stroke-width="1.5" opacity="0.62"/>
  <path d="M34 62 H326" stroke="#39264e" stroke-width="1" opacity="0.78"/>
  <path d="M60 22 V54" stroke="#c49a4a" stroke-width="3" opacity="1"/>
  <path d="M72 22 V54" stroke="#9f7aed" stroke-width="3" opacity="1"/>
  <path d="M288 22 V54" stroke="#9f7aed" stroke-width="3" opacity="1"/>
  <path d="M300 22 V54" stroke="#c49a4a" stroke-width="3" opacity="1"/>
  <path d="M28 18 H62 M298 18 H332 M28 58 H62 M298 58 H332" stroke="#b28cff" stroke-width="2" opacity="0.9"/>
  <path d="M112 66 C150 58,210 58,248 66" stroke="#c49a4a" stroke-width="2" opacity="0.34" fill="none"/>
  <path d="M34 34 C50 20,60 18,74 25" stroke="#d0a857" stroke-width="2.3" opacity="0.78" fill="none"/>
  <path d="M326 34 C310 20,300 18,286 25" stroke="#d0a857" stroke-width="2.3" opacity="0.78" fill="none"/>
  <path d="M82 60 C124 47,177 66,230 55 C253 50,270 50,286 58" stroke="#b28cff" stroke-width="2" opacity="0.55" fill="none"/>
  <ellipse cx="102" cy="22" rx="4.5" ry="2.6" fill="#090712" stroke="#b28cff" stroke-width="1" opacity="0.85"/>
  <ellipse cx="258" cy="51" rx="5.5" ry="3" fill="#090712" stroke="#b28cff" stroke-width="1" opacity="0.78"/>
  <ellipse cx="278" cy="27" rx="3.5" ry="2.1" fill="#090712" stroke="#d0a857" stroke-width="0.9" opacity="0.66"/>
</svg>
