<svg xmlns="http://www.w3.org/2000/svg" width="360" height="76" viewBox="0 0 360 76">
  <defs>
    <linearGradient id="fill" x1="0" y1="0" x2="0" y2="1">
      <stop offset="0" stop-color="#171821"/>
      <stop offset="1" stop-color="#0e0f14"/>
    </linearGradient>
  </defs>
  <rect width="360" height="76" fill="none"/>
  <path d="M16 12 L30 6 H330 L344 12 V64 L330 70 H30 L16 64 Z" fill="url(#fill)" stroke="#3d394a" stroke-width="2"/>
  <path d="M34 16 H326" stroke="#5f536f" stroke-width="1" opacity="0.30"/>
  <path d="M34 60 H326" stroke="#151515" stroke-width="1" opacity="0.65"/>
  <path d="M60 24 V52" stroke="#5f536f" stroke-width="3" opacity="0.55"/>
  <path d="M72 24 V52" stroke="#4a3d63" stroke-width="3" opacity="0.55"/>
  <path d="M288 24 V52" stroke="#4a3d63" stroke-width="3" opacity="0.55"/>
  <path d="M300 24 V52" stroke="#5f536f" stroke-width="3" opacity="0.55"/>
  <path d="M28 20 H62 M298 20 H332 M28 56 H62 M298 56 H332" stroke="#5f536f" stroke-width="1.5" opacity="0.42"/>
  <path d="M48 18 L312 58" stroke="#000000" stroke-width="2" opacity="0.20"/>
  <path d="M39 35 C52 26,60 25,70 30" stroke="#5f536f" stroke-width="2" opacity="0.35" fill="none"/>
  <path d="M321 35 C308 26,300 25,290 30" stroke="#5f536f" stroke-width="2" opacity="0.35" fill="none"/>
  <path d="M100 60 C138 55,181 63,224 58 C246 55,264 55,276 59" stroke="#4a3d63" stroke-width="1.5" opacity="0.28" fill="none"/>
  <ellipse cx="104" cy="24" rx="4" ry="2.3" fill="#07070a" stroke="#4a3d63" stroke-width="1" opacity="0.42"/>
  <ellipse cx="257" cy="50" rx="5" ry="2.6" fill="#07070a" stroke="#4a3d63" stroke-width="1" opacity="0.38"/>
</svg>
